<svg xmlns="http://www.w3.org/2000/svg" viewBox="0 0 595.3 841.9" style="enable-background:new 0 0 595.3 841.9" xml:space="preserve"><style>.st0{display:none}.st3{display:inline;fill:#be1622}.st9{fill:#bfd9e0;stroke:#9ec7d1;stroke-miterlimit:10}</style><g id="Шар_5"><path d="M98.6 663.3v-400c0-23.2 18.8-42.1 42.1-42.1h212.5c23.2 0 42.1 18.8 42.1 42.1v400c0 23.2-18.8 42.1-42.1 42.1H140.7c-23.3 0-42.1-18.9-42.1-42.1z" style="fill:#5ea1b2;stroke:#ffb9fe;stroke-miterlimit:10"/><path class="st9" d="M359.3 216.6H134.6c-22.4 0-40.6 18.2-40.6 40.6v412.2c0 22.4 18.2 40.6 40.6 40.6h224.7c22.4 0 40.6-18.2 40.6-40.6V257.2c0-22.4-18.2-40.6-40.6-40.6zm22.3 452.8c0 12.3-10 22.3-22.3 22.3H134.6c-12.3 0-22.3-10-22.3-22.3V257.2c0-12.3 10-22.3 22.3-22.3h224.7c12.3 0 22.3 10 22.3 22.3v412.2z"/><path class="st9" d="M173.5 492.9h146.9c0-40.6-32.9-73.4-73.4-73.4s-73.5 32.9-73.5 73.4z"/><circle class="st9" cx="247" cy="363.1" r="56.4"/></g></svg>