<!-- Generated by IcoMoon.io -->
<svg version="1.1" xmlns="http://www.w3.org/2000/svg" width="4468" height="1024" viewBox="0 0 4468 1024">
<g id="icomoon-ignore">
</g>
<path fill="#fff" d="M917.878 768.092l-8.291-420.065-0.737-41.27c-1.842-97.462-49.008-189.766-129.704-244.485-48.271-32.61-106.306-51.771-168.947-51.771v0c-6.264 0-12.344 0.368-18.424 1.105 0 0-331.999 33.9-444.2 48.271-50.666 6.448-91.198 46.060-91.198 97.831s44.033 98.199 98.199 98.199l19.345-1.842h0.553s143.154-14.002 143.154-14.002l272.674-26.53c23.767-2.395 48.086 2.579 68.168 15.66 38.69 24.872 64.299 68.353 64.299 117.913 0 3.501 0 7.001-0.368 10.502l-488.049 78.67c-134.863 25.425-236.379 144.443-234.352 286.86 2.211 158.077 134.494 283.359 292.571 283.359h408.826c115.886 0 210.585-90.646 217.033-204.874v0s-0.553-33.531-0.553-33.531zM722.401 796.096c0 7.738-6.264 14.002-14.002 14.002h-413.801c-50.297 0-91.198-40.901-91.198-91.198 0-44.402 31.689-81.249 73.511-89.54h0.553c1.658-0.368 3.316-0.553 4.974-0.921l439.963-68.168v235.826z"></path>
<path fill="#fff" d="M2123.354 904.797c0 58.035-47.165 105.2-105.2 105.2-51.218 0-93.778-36.479-103.174-84.934v0s-105.016-327.577-105.016-327.577l-0.368-1.105-95.988-299.388c-0.553-1.658-0.921-3.316-1.474-4.974v-0.368c-15.845-45.323-58.956-77.749-109.438-77.749h-1.842c-50.481 0-93.593 32.426-109.254 77.749v0.368c-0.737 1.658-1.105 3.316-1.658 4.974l-201.373 627.886c-9.396 48.455-52.14 85.118-103.174 85.118-58.035 0-105.2-47.165-105.2-105.2 0-10.317 1.474-20.451 4.422-29.847v0l199.347-640.415 1.658 0.368c41.822-131.547 163.788-227.535 308.416-231.22 2.948 0 5.711 0 8.659 0 2.395 0 4.606 0 6.817 0 144.628 3.685 266.594 99.673 308.6 231.22l1.658-0.368 1.658 5.159 197.688 635.256c2.764 9.396 4.237 19.529 4.237 29.847z"></path>
<path fill="#fff" d="M3329.75 904.797c0 58.035-47.165 105.2-105.2 105.2-51.218 0-93.778-36.479-103.174-84.934v0s-105.016-327.577-105.016-327.577l-0.368-1.105-95.988-299.388c-0.553-1.658-0.921-3.316-1.474-4.974v-0.368c-15.845-45.323-58.956-77.749-109.438-77.749h-1.842c-50.481 0-93.593 32.426-109.254 77.749v0.368c-0.737 1.658-1.105 3.316-1.658 4.974l-201.373 627.886c-9.396 48.455-52.14 85.118-103.174 85.118-58.035 0-105.2-47.165-105.2-105.2 0-10.317 1.474-20.451 4.422-29.847v0l199.347-640.415 1.658 0.368c42.191-131.547 163.973-227.535 308.6-231.22 2.948 0 5.711 0 8.659 0 2.395 0 4.606 0 6.817 0 144.628 3.685 266.594 99.673 308.6 231.22l1.658-0.368 1.658 5.159 197.688 635.256c2.764 9.396 4.237 19.529 4.237 29.847z"></path>
<path fill="#fff" d="M3955.794 0c-282.807 0-512 229.193-512 512s229.193 512 512 512 512-229.193 512-512-229.193-512-512-512zM3955.794 817.1c-168.579 0-305.1-136.521-305.1-305.1s136.521-305.1 305.1-305.1 305.1 136.521 305.1 305.1-136.521 305.1-305.1 305.1z"></path>
<path fill="#fff" d="M4106.502 512c0 83.233-67.474 150.707-150.707 150.707s-150.707-67.474-150.707-150.707c0-83.233 67.474-150.707 150.707-150.707s150.707 67.474 150.707 150.707z"></path>
</svg>
