<svg xmlns="http://www.w3.org/2000/svg" viewBox="0 0 95.98 154.19">
<defs>
<style>.cls-2{stroke-miterlimit:10;fill:#bfd9e0;stroke:#9ec7d1}</style>
</defs><g id="Шар_5" data-name="Шар 5">
<rect x="210.03" y="355.5" width="150.36" height="92.14" rx="11.18" transform="rotate(90 328.84 120.72)" style="stroke-miterlimit:10;fill:#5ea1b2;stroke:#ffb9fe"/>
<path class="cls-2" d="M320.11 325h-69.79a12.6 12.6 0 0 0-12.6 12.59v128a12.6 12.6 0 0 0 12.6 12.6h69.79a12.6 12.6 0 0 0 12.59-12.6v-128A12.59 12.59 0 0 0 320.11 325ZM327 465.57a6.93 6.93 0 0 1-6.92 6.93h-69.76a6.94 6.94 0 0 1-6.93-6.93v-128a6.94 6.94 0 0 1 6.93-6.92h69.79a6.93 6.93 0 0 1 6.92 6.92Z" transform="translate(-237.22 -324.48)"/>
<path class="cls-2" d="M262.4 410.79H308a22.81 22.81 0 0 0-45.62 0Z" transform="translate(-237.22 -324.48)"/>
<circle class="cls-2" cx="47.99" cy="45.99" r="17.51"/></g></svg>
