<svg aria-hidden="true" style="position: absolute; width: 0; height: 0; overflow: hidden;" version="1.1" xmlns="http://www.w3.org/2000/svg" xmlns:xlink="http://www.w3.org/1999/xlink">
<defs>
<symbol id="icon-mainSVG" viewBox="0 0 20 32">
<path fill="#5ea1b2" style="fill: var(--color1, #5ea1b2)" d="M19.521 2.717v26.565c0 1.281-1.039 2.32-2.32 2.32h-14.482c-1.281 0-2.32-1.039-2.32-2.32v-26.565c0-1.281 1.039-2.32 2.32-2.32h14.482c1.281 0 2.32 1.039 2.32 2.32z"></path>
<path fill="#bfd9e0" style="fill: var(--color2, #bfd9e0)" d="M17.203 0.108h-14.484c-1.443 0-2.614 1.17-2.615 2.613v26.565c0 1.444 1.171 2.615 2.615 2.615v0h14.484c1.443-0.001 2.613-1.171 2.613-2.615v0-26.565c0-1.443-1.17-2.613-2.613-2.613v0zM18.633 29.281c0 0 0 0 0 0 0 0.794-0.643 1.437-1.436 1.438h-14.478c-0.794-0.001-1.437-0.644-1.438-1.438v-26.565c0.002-0.793 0.645-1.435 1.438-1.436h14.484c0.793 0.001 1.435 0.643 1.436 1.436v0z"></path>
<path fill="#bfd9e0" style="fill: var(--color2, #bfd9e0)" d="M5.226 17.912h9.464c0-2.614-2.119-4.734-4.734-4.734s-4.734 2.119-4.734 4.734v0z"></path>
<path fill="#bfd9e0" style="fill: var(--color2, #bfd9e0)" d="M13.594 9.545c0 2.007-1.627 3.634-3.634 3.634s-3.634-1.627-3.634-3.634c0-2.007 1.627-3.634 3.634-3.634s3.634 1.627 3.634 3.634z"></path>
</symbol>
<symbol id="icon-iconBage" viewBox="0 0 23 32">
<path fill="#5ea1b2" style="fill: var(--color1, #5ea1b2)" d="M3.748 25.212v-15.204c0-0.882 0.715-1.6 1.6-1.6h8.077c0.882 0 1.6 0.715 1.6 1.6v15.204c0 0.882-0.715 1.6-1.6 1.6h-8.077c-0.886 0-1.6-0.718-1.6-1.6z"></path>
<path fill="#bfd9e0" style="fill: var(--color2, #bfd9e0)" d="M13.657 8.233h-8.541c-0.851 0-1.543 0.692-1.543 1.543v15.667c0 0.851 0.692 1.543 1.543 1.543h8.541c0.851 0 1.543-0.692 1.543-1.543v-15.667c0-0.851-0.692-1.543-1.543-1.543zM14.504 25.443c0 0.468-0.38 0.848-0.848 0.848h-8.541c-0.468 0-0.848-0.38-0.848-0.848v-15.667c0-0.467 0.38-0.848 0.848-0.848h8.541c0.467 0 0.848 0.38 0.848 0.848v15.667z"></path>
<path fill="#bfd9e0" style="fill: var(--color2, #bfd9e0)" d="M6.595 18.735h5.584c0-1.543-1.251-2.79-2.79-2.79s-2.794 1.251-2.794 2.79z"></path>
<path fill="#bfd9e0" style="fill: var(--color2, #bfd9e0)" d="M11.532 13.801c0 1.184-0.96 2.144-2.144 2.144s-2.144-0.96-2.144-2.144c0-1.184 0.96-2.144 2.144-2.144s2.144 0.96 2.144 2.144z"></path>
<symbol id="icon-checkmark" viewBox="0 0 32 32">
<path d="M27 4l-15 15-7-7-5 5 12 12 20-20z"></path>
</symbol>
<symbol id="icon-arrow-right" viewBox="0 0 32 32">
<path d="M9.189 32c-0.686 0-1.143-0.229-1.6-0.686-0.914-0.914-0.914-2.286 0-3.2l12.114-12.114-12.114-12.114c-0.914-0.914-0.914-2.286 0-3.2s2.286-0.914 3.2 0l13.714 13.714c0.914 0.914 0.914 2.286 0 3.2l-13.714 13.714c-0.457 0.457-0.914 0.686-1.6 0.686z"></path>
</symbol>
<symbol id="icon-allo-logo2" viewBox="0 0 140 32">
<path d="M28.547 24.115l-0.23-13.122v-1.266c-0.058-3.050-1.554-5.928-4.029-7.655-1.496-1.036-3.338-1.611-5.295-1.611 0 0 0 0 0 0-0.173 0-0.403 0-0.576 0.058 0 0-10.36 1.036-13.87 1.496-1.611 0.23-2.878 1.439-2.878 3.050 0 1.669 1.381 3.050 3.050 3.050l0.576-0.058 4.489-0.46 6.446-0.633 2.072-0.23c0.748-0.058 1.496 0.058 2.13 0.46 1.209 0.806 2.014 2.13 2.014 3.683 0 0.115 0 0.23 0 0.345l-8.403 1.439-3.856 0.633-2.532 0.403-0.46 0.058c-4.201 0.806-7.367 4.489-7.309 8.978 0.058 4.95 4.201 8.863 9.151 8.863h12.777c3.626 0 6.561-2.82 6.791-6.389v0l-0.058-1.094zM22.446 24.978c0 0.23-0.173 0.46-0.46 0.46h-12.892c-1.554 0-2.82-1.266-2.82-2.82 0-1.381 0.978-2.532 2.302-2.82v0c0.058 0 0.115 0 0.173 0l6.906-1.094 1.266-0.173 5.583-0.863v7.309z"></path>
<path d="M66.245 28.374c0 1.842-1.496 3.281-3.281 3.281-1.611 0-2.935-1.151-3.223-2.647v0l-3.281-10.245v-0.058l-2.993-9.324c0-0.058-0.058-0.115-0.058-0.173v0c-0.518-1.439-1.842-2.417-3.396-2.417h-0.058c-1.554 0-2.935 1.036-3.396 2.417v0c0 0.058-0.058 0.115-0.058 0.173l-2.993 9.324v0.058l-3.281 10.245c-0.403 1.496-1.727 2.647-3.281 2.647-1.842 0-3.281-1.496-3.281-3.281 0-0.345 0.058-0.633 0.115-0.921v0l6.158-19.856 0.058-0.173h0.058c1.324-4.086 5.122-7.137 9.669-7.252 0.115 0 0.173 0 0.288 0 0.058 0 0.115 0 0.23 0 4.432 0.173 8.23 3.165 9.554 7.309h0.058l0.058 0.173 6.158 19.799v0.058c0.115 0.23 0.173 0.576 0.173 0.863z"></path>
<path d="M103.942 28.374c0 1.842-1.496 3.281-3.281 3.281-1.612 0-2.935-1.151-3.223-2.647v0l-3.281-10.245v-0.058l-2.993-9.324c0-0.058-0.058-0.115-0.058-0.173v0c-0.518-1.439-1.842-2.417-3.396-2.417h-0.058c-1.554 0-2.935 1.036-3.396 2.417v0c0 0.058-0.058 0.115-0.058 0.173l-3.050 9.381v0.058l-3.281 10.245c-0.288 1.496-1.612 2.647-3.223 2.647-1.842 0-3.281-1.496-3.281-3.281 0-0.345 0.058-0.633 0.115-0.921v0l6.158-19.856 0.058-0.173h0.058c1.324-4.086 5.122-7.137 9.669-7.252 0.115 0 0.173 0 0.288 0 0.058 0 0.115 0 0.23 0 4.547 0.115 8.345 3.108 9.669 7.252h0.058l0.058 0.173 6.158 19.799v0.058c0 0.23 0.058 0.576 0.058 0.863z"></path>
<path d="M123.453 0.115c-8.806 0-16 7.137-16 16s7.137 16 16 16 16-7.137 16-16-7.137-16-16-16zM123.453 25.669c-5.237 0-9.554-4.259-9.554-9.554 0-5.237 4.259-9.554 9.554-9.554 5.237 0 9.554 4.259 9.554 9.554 0 5.237-4.259 9.554-9.554 9.554z"></path>
<path d="M128.173 16.115c0 2.606-2.113 4.719-4.719 4.719s-4.719-2.113-4.719-4.719c0-2.606 2.113-4.719 4.719-4.719s4.719 2.113 4.719 4.719z"></path>
</symbol>
<symbol id="icon-female-icon-new" viewBox="0 0 32 32">
<path fill="#ff48d0" style="fill: var(--color1, #ff48d0)" d="M16 32c-4.274 0-8.291-1.664-11.314-4.686s-4.686-7.040-4.686-11.314 1.664-8.292 4.686-11.314 7.040-4.686 11.314-4.686 8.291 1.664 11.314 4.686 4.686 7.040 4.686 11.314-1.664 8.291-4.686 11.314-7.040 4.686-11.314 4.686z"></path>
<path fill="#ffe7dc" style="fill: var(--color2, #ffe7dc)" d="M28.181 26.374c-0.567 0.665-1.186 1.282-1.853 1.846-0.151 0.064-0.306 0.125-0.464 0.179-2.911 0.998-4.636-0.783-8.412 0.017-0.261 0.055-0.481 0.116-0.67 0.177-0.439 0.14-0.912 0.14-1.352 0-0.189-0.061-0.408-0.122-0.67-0.177-3.776-0.8-5.501 0.981-8.412-0.017-0.329-0.113-0.645-0.252-0.935-0.403-0.553-0.488-1.072-1.014-1.552-1.573 0.173-0.090 0.606-0.072 1.356-0.22 0.629-0.124 1.044-0.28 1.875-0.591 1.227-0.46 2.026-0.781 2.939-1.402 0.963-0.654 1.811-1.206 1.942-2.323 0.017-0.141 0.026-0.282 0.028-0.42 0.41 0.457 1.161 1.104 1.704 1.52 0.17 0.13 0.736 0.495 1.17 0.74 0.131 0.074 0.369 0.134 0.611 0.178s0.489 0.070 0.64 0.075c0.301-0.011 0.988-0.105 1.25-0.253 0.434-0.245 1.001-0.61 1.171-0.74 0.525-0.403 1.248-1.024 1.664-1.478 0.003 0.125 0.012 0.251 0.027 0.378 0.131 1.117 0.979 1.668 1.942 2.323 0.913 0.621 1.712 0.942 2.939 1.402 0.831 0.311 1.246 0.467 1.875 0.591 0.57 0.113 0.957 0.13 1.186 0.171z"></path>
<path fill="#666" style="fill: var(--color3, #666)" d="M29.139 25.134c-2.891 4.15-7.698 6.866-13.139 6.866s-10.247-2.716-13.139-6.866c2.081-1.421 4.978-2.494 8.322-3.026-0.002 0.168-0.002 0.338-0.001 0.51-0.099 0.318-0.559 1.754 0.204 3.166 0.775 1.431 2.818 2.116 4.612 2.094 1.758 0.021 3.838-0.663 4.612-2.094 0.763-1.41 0.305-2.844 0.205-3.165 0-0.172 0-0.342-0-0.512 3.344 0.532 6.241 1.606 8.322 3.026z"></path>
<path fill="#666" style="fill: var(--color3, #666)" d="M29.139 25.134c-2.891 4.15-7.698 6.866-13.139 6.866s-10.247-2.716-13.139-6.866c0.993-0.678 2.172-1.277 3.498-1.776 0.248 1.084 1.403 2.051 2.337 2.508 1.091 0.535 2.146 0.506 2.748 0.431-0.020-0.013-0.456-0.289-0.582-0.747-0.039-0.14-0.037-0.28-0.012-0.413 0.027-0.145 0.086-0.282 0.168-0.404 0.063 0.34 0.177 0.697 0.369 1.052 0.775 1.431 2.818 2.116 4.612 2.094 1.758 0.021 3.838-0.663 4.612-2.094 0.037-0.069 0.072-0.138 0.103-0.207 0.106 0.138 0.179 0.288 0.194 0.504 0.068 0.961-0.975 1.761-0.975 1.761s1.216 0 2.251-0.735c0.815-0.579 0.422-0.924 0.587-1.494 0.23-0.795 1.288-0.77 2.002-1.673 0.188-0.238 0.313-0.5 0.395-0.754 1.519 0.531 2.861 1.19 3.971 1.947z"></path>
<path fill="#f7ccbc" style="fill: var(--color4, #f7ccbc)" d="M20.212 21.509c-0.416 0.454-1.139 1.075-1.664 1.478-0.17 0.13-0.737 0.495-1.171 0.74-0.262 0.148-0.949 0.242-1.25 0.253-0.15-0.005-0.397-0.032-0.64-0.075s-0.48-0.104-0.611-0.178c-0.434-0.245-1.001-0.61-1.17-0.74-0.543-0.416-1.294-1.063-1.704-1.52 0.008-0.43-0.048-0.835-0.134-1.151 0.017 0.021 0.035 0.043 0.052 0.064 0.384 0.458 1.205 1.17 1.786 1.616 0.17 0.13 0.736 0.495 1.17 0.74 0.131 0.074 0.369 0.134 0.611 0.178s0.489 0.070 0.64 0.075c0.301-0.011 0.988-0.105 1.25-0.253 0.434-0.245 1.001-0.61 1.171-0.74 0.578-0.444 1.394-1.15 1.78-1.609-0.078 0.316-0.127 0.709-0.116 1.123z"></path>
<path fill="#1d1d1b" style="fill: var(--color5, #1d1d1b)" d="M26.115 16.846c-0.252 1.043-0.808 0.528-1.127 1.621-0.171 0.584-0.116 1.091-0.051 1.684 0.107 0.981 0.354 1.083 0.38 1.799 0.006 0.185 0.024 0.694-0.15 1.235-0.082 0.254-0.207 0.516-0.395 0.754-0.714 0.903-1.772 0.877-2.002 1.673-0.165 0.57 0.228 0.916-0.587 1.494-1.035 0.735-2.251 0.735-2.251 0.735s1.044-0.8 0.975-1.761c-0.015-0.216-0.088-0.366-0.194-0.504-0.214-0.281-0.564-0.517-0.845-1.168-0.354-0.82-0.295-1.59-0.254-2.141 0.066-0.865 1.156-2.615 0.843-5.641l-9.171 2.627c0.253 0.313 0.486 0.695 0.651 1.151 0.031 0.084 0.059 0.17 0.084 0.259 0.551 1.916-0.543 3.489-0.935 3.971-0.025 0.031-0.049 0.064-0.071 0.097-0.082 0.123-0.141 0.259-0.168 0.404-0.025 0.133-0.026 0.273 0.012 0.413 0.126 0.458 0.562 0.734 0.582 0.747-0.602 0.075-1.657 0.105-2.748-0.431-0.935-0.457-2.090-1.424-2.337-2.508-0.040-0.175-0.056-0.353-0.044-0.532 0.052-0.78 0.589-0.815 0.583-1.621-0.008-0.975-0.795-1.183-0.937-2.433-0.070-0.619 0.14-0.696 0.051-1.457-0.117-0.99-0.462-0.83-0.405-1.609 0.087-1.188 0.77-2.092 1.058-2.496 0.412-0.577 0.671-0.918 0.95-1.932 0.199-0.723 0.29-1.508 0.45-2.16 0.269-1.1 0.902-3.685 3.192-5.219 0.495-0.331 1.453-0.954 2.686-0.866 0.427-0.405 1.346-0.673 2.407-0.654 1.287 0.022 2.345 0.377 3.116 0.76 0.922 0.458 1.724 1.027 2.445 2.052 0.547 0.779 0.741 1.557 1.001 2.597 0.292 1.169 0.439 3.089 0.671 3.458 0.257 0.409 0.52 0.504 1.102 0.76 0.735 0.323 1.505 0.997 1.482 1.989-0.013 0.558-0.439 0.667-0.431 1.356 0.006 0.539 0.608 0.55 0.38 1.495z"></path>
<path fill="#ffe7dc" style="fill: var(--color2, #ffe7dc)" d="M21.393 18.524c-0.241 0.673-0.596 1.302-1.060 1.856-0.384 0.458-1.205 1.17-1.786 1.616-0.17 0.13-0.737 0.495-1.171 0.74-0.262 0.148-0.949 0.242-1.25 0.253-0.15-0.005-0.397-0.032-0.64-0.075s-0.48-0.104-0.611-0.178c-0.434-0.245-1.001-0.61-1.17-0.74-0.571-0.438-1.373-1.132-1.765-1.591-0.219-0.604-0.557-1.077-0.901-1.434-0.294-0.656-0.474-1.363-0.533-2.087l-0.039-0.476c0.084-0.358 0.147-0.754 0.172-1.183 0.076-1.302-0.227-2.376-0.522-3.1l-0.081-0.994c0.897-1.159 1.001-1.311 1.001-1.311 0.55-0.912 0.859-1.782 1.037-2.472 0.227 0.869 0.794 2.377 2.222 3.545 1.809 1.479 3.944 1.551 5.381 1.363 0.134 0.291 0.382 0.678 0.826 0.967 0.435 0.284 0.885 0.361 1.247 0.36-0.238 0.629-0.464 1.447-0.538 2.418-0.075 1.007 0.036 1.871 0.18 2.523z"></path>
</symbol>
<symbol id="icon-male-icon-new" viewBox="0 0 32 32">
<path fill="#00b7ff" style="fill: var(--color6, #00b7ff)" d="M32 16c0 3.395-1.058 6.544-2.861 9.134-3.029-2.068-7.788-3.4-13.139-3.4s-10.109 1.332-13.139 3.4c-1.804-2.59-2.861-5.739-2.861-9.134 0-8.836 7.164-16 16-16s16 7.164 16 16z"></path>
<path fill="#666" style="fill: var(--color3, #666)" d="M29.139 25.134c-2.891 4.15-7.698 6.866-13.139 6.866s-10.247-2.716-13.139-6.866c2.081-1.421 4.978-2.494 8.322-3.026-0.002 0.168-0.002 0.338-0.001 0.51-0.099 0.318-0.559 1.754 0.204 3.166 0.775 1.431 2.818 2.116 4.612 2.094 1.758 0.021 3.838-0.663 4.612-2.094 0.763-1.41 0.305-2.844 0.205-3.165 0-0.172 0-0.342-0-0.512 3.344 0.532 6.241 1.606 8.322 3.026z"></path>
<path fill="#666" style="fill: var(--color3, #666)" d="M20.612 25.784c-0.774 1.431-2.853 2.116-4.612 2.094-1.795 0.021-3.838-0.663-4.612-2.094-0.764-1.412-0.304-2.848-0.204-3.166-0.001-0.172-0.001-0.342 0.001-0.51 0.233-0.037 0.468-0.072 0.705-0.104 0.135-0.018 0.271-0.035 0.408-0.052 1.191-0.143 2.43-0.218 3.703-0.218s2.512 0.075 3.703 0.218c0.137 0.016 0.273 0.033 0.408 0.052 0.237 0.032 0.472 0.067 0.705 0.104 0.001 0.169 0.001 0.339 0 0.512 0.1 0.321 0.558 1.755-0.205 3.165z"></path>
<path fill="#ffe0d7" style="fill: var(--color7, #ffe0d7)" d="M10.52 16.318c-0.132 0.076-0.223 0.056-0.254 0.047-0.119-0.035-0.181-0.159-0.259-0.317-0.050-0.1-0.058-0.143-0.089-0.215-0.126-0.299-0.182-0.35-0.301-0.561-0.048-0.085-0.12-0.443-0.102-0.861s0.017-0.611 0.003-0.782c-0.023-0.289-0.059-0.458-0.108-0.526-0.102-0.142-0.143-0.273-0.127-0.389 0.017-0.123 0.135-0.179 0.264-0.173 0.102 0.004 0.27 0.148 0.313 0.196 0.232 0.266 0.344 0.532 0.436 0.72l0.901 0.899-0.139 1.254-0.538 0.707z"></path>
<path fill="#ffe0d7" style="fill: var(--color7, #ffe0d7)" d="M21.48 16.318c0.132 0.076 0.223 0.056 0.254 0.047 0.119-0.035 0.181-0.159 0.259-0.317 0.050-0.1 0.058-0.143 0.089-0.215 0.126-0.299 0.182-0.35 0.301-0.561 0.048-0.085 0.12-0.443 0.102-0.861s-0.017-0.611-0.003-0.782c0.023-0.289 0.059-0.458 0.108-0.526 0.102-0.142 0.143-0.273 0.127-0.389-0.017-0.123-0.135-0.179-0.264-0.173-0.102 0.004-0.27 0.148-0.313 0.196-0.232 0.266-0.344 0.532-0.436 0.72l-0.901 0.899 0.139 1.254 0.538 0.707z"></path>
<path fill="#ffe7dc" style="fill: var(--color2, #ffe7dc)" d="M20.762 20.295c-0.496 1.553-0.82 2.122-1.269 2.678-1.030 1.277-2.522 1.579-3.493 1.579-0.486 0-1.101-0.075-1.725-0.311s-1.254-0.63-1.769-1.269c-0.448-0.556-0.773-1.125-1.268-2.678 0.011-0.212 0.024-0.421 0.038-0.626h9.448c0.014 0.205 0.027 0.414 0.038 0.626z"></path>
<path fill="#f7ccbc" style="fill: var(--color4, #f7ccbc)" d="M20.762 20.295c-0.496 1.553-0.82 2.122-1.269 2.678-1.030 1.277-2.522 1.579-3.493 1.579-0.486 0-1.101-0.075-1.725-0.311s-1.254-0.63-1.769-1.269c-0.448-0.556-0.773-1.125-1.268-2.678 0.011-0.212 0.024-0.421 0.038-0.626h9.448c0.014 0.205 0.027 0.414 0.038 0.626z"></path>
<path fill="#ffe7dc" style="fill: var(--color2, #ffe7dc)" d="M16 7.964c0.642 0 1.032-0.025 2.049-0.093 1.24-0.082 1.885-0.035 2.398 0.241 0.593 0.318 0.664 0.872 1.064 3.382 0.335 2.102 0.087 5.314-0.608 7.601-0.579 1.904-0.921 2.526-1.411 3.133-1.031 1.277-2.522 1.579-3.493 1.579v0c-0.971 0-2.463-0.302-3.493-1.579-0.49-0.607-0.832-1.23-1.411-3.133-0.695-2.287-0.943-5.499-0.608-7.601 0.4-2.511 0.471-3.064 1.064-3.382 0.514-0.275 1.159-0.323 2.399-0.241 1.017 0.067 1.407 0.093 2.049 0.093z"></path>
<path fill="#1d1d1b" style="fill: var(--color5, #1d1d1b)" d="M21.943 8.023c-0.542-1.539-1.7-2.388-2.153-2.711-1.547-1.103-3.147-1.191-3.789-1.191s-2.242 0.088-3.789 1.191c-0.454 0.324-1.612 1.172-2.153 2.711-0.333 0.945-0.291 1.746-0.241 2.723 0.063 1.216 0.314 2.198 0.524 2.851v0c0.001-0.763 0.048-1.482 0.147-2.103 0.4-2.511 0.471-3.064 1.064-3.382 0.514-0.275 1.159-0.323 2.399-0.241 1.017 0.067 1.407 0.093 2.049 0.093s1.032-0.025 2.049-0.093c1.24-0.082 1.885-0.035 2.398 0.241 0.593 0.318 0.664 0.872 1.064 3.382 0.099 0.621 0.147 1.34 0.147 2.103v0c0.21-0.653 0.461-1.635 0.524-2.851 0.051-0.978 0.092-1.779-0.241-2.723z"></path>
</symbol>
<symbol id="icon-allo-logo" viewBox="0 0 32 32">
<path d="M16 0c-8.836 0-16 7.164-16 16s7.164 16 16 16 16-7.164 16-16-7.164-16-16-16zM16 26.047c-5.549 0-10.046-4.497-10.046-10.047s4.497-10.046 10.046-10.046 10.047 4.497 10.047 10.046-4.497 10.047-10.047 10.047z"></path>
<path d="M20.961 16c0 2.74-2.221 4.961-4.961 4.961s-4.961-2.221-4.961-4.961c0-2.74 2.221-4.961 4.961-4.961s4.961 2.221 4.961 4.961z"></path>
</symbol>
<symbol id="icon-allo-box-qr" viewBox="0 0 32 32">
<path d="M0.97 8.727v-0.97h-0.97v1.939h0.97v-0.97z"></path>
<path d="M0 18.424h0.97v0.97h-0.97v-0.97z"></path>
<path d="M0 20.364h0.97v0.97h-0.97v-0.97z"></path>
<path d="M0 22.303h0.97v0.97h-0.97v-0.97z"></path>
<path d="M1.939 6.788h4.848v-6.788h-6.788v6.788h1.939zM0.97 4.848v-3.879h4.848v4.848h-4.848v-0.97z"></path>
<path d="M0.97 19.394h0.97v0.97h-0.97v-0.97z"></path>
<path d="M0.97 23.273h0.97v0.97h-0.97v-0.97z"></path>
<path d="M3.879 4.848h0.97v-2.909h-2.909v2.909h1.939z"></path>
<path d="M2.909 8.727v0.97h-0.97v0.97h1.939v-2.909h-0.97v0.97z"></path>
<path d="M3.879 15.515v-1.939h-0.97v0.97h-0.97v-2.909h-0.97v-0.97h-0.97v3.879h0.97v1.939h1.939v-0.97h0.97z"></path>
<path d="M2.909 16.485h0.97v0.97h-0.97v-0.97z"></path>
<path d="M2.909 27.151h-0.97v2.909h2.909v-2.909h-1.939z"></path>
<path d="M4.848 17.455h-0.97v0.97h-0.97v-0.97h-1.939v0.97h0.97v0.97h0.97v0.97h-0.97v0.97h0.97v0.97h-0.97v0.97h0.97v0.97h0.97v-4.848h0.97v-1.939z"></path>
<path d="M4.848 10.667h0.97v0.97h-0.97v-0.97z"></path>
<path d="M4.848 12.606h0.97v0.97h-0.97v-0.97z"></path>
<path d="M5.818 22.303h0.97v-0.97h-0.97v-0.97h3.879v-0.97h-0.97v-1.939h0.97v1.939h1.939v-0.97h-0.97v-1.939h-3.879v0.97h-0.97v0.97h1.939v0.97h-2.909v4.849h1.939v-0.97h-0.97v-0.97z"></path>
<path d="M4.848 25.212h-4.848v6.788h6.788v-6.788h-1.939zM5.818 27.151v3.879h-4.848v-4.848h4.848v0.97z"></path>
<path d="M5.818 7.758h-0.97v0.97h1.939v-0.97h-0.97z"></path>
<path d="M5.818 13.576h0.97v0.97h-0.97v-0.97z"></path>
<path d="M5.818 15.515v-0.97h-0.97v1.939h1.939v-0.97h-0.97z"></path>
<path d="M8.727 23.273v-0.97h2.909v-0.97h-0.97v-0.97h-0.97v0.97h-1.939v0.97h-0.97v0.97h0.97v1.939h0.97v-1.939z"></path>
<path d="M7.758 26.182h0.97v0.97h-0.97v-0.97z"></path>
<path d="M7.758 31.030h0.97v0.97h-0.97v-0.97z"></path>
<path d="M8.727 25.212h0.97v0.97h-0.97v-0.97z"></path>
<path d="M10.667 31.030h-0.97v0.97h1.939v-1.939h-0.97v0.97z"></path>
<path d="M12.606 14.545v0.97h-0.97v-0.97h-0.97v1.939h1.939v0.97h0.97v0.97h0.97v-1.939h-0.97v-2.909h0.97v0.97h0.97v0.97h0.97v0.97h-0.97v0.97h0.97v0.97h0.97v-3.879h-0.97v-0.97h-0.97v-0.97h-0.97v-0.97h-0.97v0.97h-0.97v0.97h-0.97v0.97h0.97z"></path>
<path d="M11.636 20.364h0.97v0.97h-0.97v-0.97z"></path>
<path d="M12.606 30.061h0.97v-0.97h-1.939v0.97h0.97z"></path>
<path d="M14.545 24.242h-1.939v1.939h-0.97v-1.939h0.97v-0.97h-2.909v0.97h0.97v1.939h-0.97v0.97h0.97v0.97h-0.97v-0.97h-0.97v0.97h-0.97v0.97h0.97v1.939h0.97v-0.97h0.97v-0.97h0.97v-0.97h0.97v-0.97h0.97v-0.97h0.97v-1.939z"></path>
<path d="M14.545 15.515h0.97v0.97h-0.97v-0.97z"></path>
<path d="M15.515 19.394h-1.939v1.939h1.939v-1.939z"></path>
<path d="M14.545 22.303h-0.97v0.97h1.939v-0.97h-0.97z"></path>
<path d="M14.545 31.030v0.97h1.939v-0.97h-1.939z"></path>
<path d="M15.515 11.636h0.97v0.97h-0.97v-0.97z"></path>
<path d="M15.515 21.333h0.97v0.97h-0.97v-0.97z"></path>
<path d="M16.485 28.121h-1.939v1.939h1.939v-1.939z"></path>
<path d="M16.485 19.394h0.97v0.97h-0.97v-0.97z"></path>
<path d="M16.485 30.061h0.97v0.97h-0.97v-0.97z"></path>
<path d="M18.424 13.576h0.97v0.97h-0.97v-0.97z"></path>
<path d="M18.424 24.242h0.97v0.97h-0.97v-0.97z"></path>
<path d="M19.394 5.818h0.97v0.97h-0.97v-0.97z"></path>
<path d="M19.394 8.727h0.97v0.97h-0.97v-0.97z"></path>
<path d="M19.394 13.576h0.97v-1.939h-0.97v1.939z"></path>
<path d="M21.333 26.182h-0.97v-0.97h-0.97v1.939h-0.97v-1.939h-0.97v-1.939h-1.939v0.97h0.97v1.939h-1.939v0.97h2.909v1.939h0.97v2.909h0.97v-0.97h0.97v0.97h0.97v-0.97h0.97v-2.909h-1.939v0.97h-0.97v-0.97h0.97v-0.97h1.939v-1.939h-0.97v0.97z"></path>
<path d="M23.273 32h0.97v-1.939h-0.97v0.97h-0.97v0.97h0.97z"></path>
<path d="M23.273 6.788h0.97v-1.939h-0.97v1.939z"></path>
<path d="M23.273 18.424h-1.939v0.97h0.97v0.97h1.939v-0.97h0.97v-0.97h-1.939z"></path>
<path d="M25.212 17.455h0.97v0.97h-0.97v-0.97z"></path>
<path d="M26.182 22.303v-1.939h-0.97v0.97h-0.97v0.97h1.939z"></path>
<path d="M25.212 25.212h0.97v0.97h-0.97v-0.97z"></path>
<path d="M26.182 16.485h0.97v0.97h-0.97v-0.97z"></path>
<path d="M26.182 18.424h0.97v0.97h-0.97v-0.97z"></path>
<path d="M28.121 9.697h-0.97v-1.939h-0.97v0.97h-0.97v-0.97h-1.939v-0.97h-0.97v-1.939h-0.97v-0.97h-0.97v-0.97h-1.939v-1.939h0.97v0.97h1.939v1.939h0.97v0.97h0.97v-0.97h0.97v-2.909h-0.97v-0.97h-1.939v0.97h-0.97v-0.97h-3.879v0.97h0.97v1.939h-1.939v0.97h0.97v0.97h-1.939v-1.939h-0.97v-0.97h0.97v0.97h0.97v-2.909h-0.97v0.97h-0.97v-0.97h-0.97v0.97h-0.97v0.97h0.97v0.97h-0.97v-0.97h-0.97v-0.97h-0.97v-0.97h-0.97v2.909h1.939v1.939h-0.97v-0.97h-0.97v0.97h-0.97v1.939h0.97v-0.97h0.97v0.97h-0.97v0.97h-0.97v0.97h-0.97v0.97h-0.97v0.97h0.97v0.97h-0.97v0.97h1.939v1.939h-0.97v0.97h1.939v-0.97h0.97v-1.939h0.97v0.97h0.97v-1.939h-1.939v-1.939h-0.97v1.939h-0.97v-1.939h0.97v-0.97h0.97v-0.97h0.97v0.97h-0.97v0.97h0.97v0.97h0.97v-0.97h0.97v0.97h-0.97v0.97h1.939v-0.97h0.97v-0.97h-0.97v-1.939h-0.97v-1.939h0.97v0.97h0.97v-0.97h0.97v0.97h-0.97v0.97h0.97v1.939h1.939v2.909h-0.97v0.97h1.939v-1.939h0.97v-1.939h-0.97v-0.97h-1.939v-0.97h1.939v-1.939h0.97v-0.97h0.97v0.97h0.97v0.97h-0.97v1.939h2.909v0.97h0.97v0.97h-2.909v-0.97h-0.97v1.939h0.97v1.939h0.97v-1.939h0.97v1.939h-0.97v0.97h0.97v0.97h-1.939v-1.939h-0.97v0.97h-0.97v0.97h0.97v0.97h1.939v0.97h2.909v-0.97h-0.97v-1.939h0.97v1.939h0.97v-1.939h0.97v-0.97h-0.97v-0.97h0.97v-0.97h-0.97v-0.97h-0.97v-0.97h0.97v0.97h0.97v0.97h0.97v0.97h0.97v-1.939h-0.97v-0.97zM11.636 6.788h-0.97v-0.97h0.97v0.97zM12.606 4.848h-0.97v-0.97h1.939v0.97h-0.97zM17.455 6.788h-0.97v-0.97h0.97v0.97zM25.212 12.606h-0.97v-0.97h0.97v0.97z"></path>
<path d="M27.151 12.606h0.97v0.97h-0.97v-0.97z"></path>
<path d="M27.151 16.485h0.97v-1.939h-0.97v1.939z"></path>
<path d="M27.151 31.030v0.97h1.939v-0.97h-1.939z"></path>
<path d="M28.121 1.939h-0.97v2.909h2.909v-2.909h-1.939z"></path>
<path d="M29.091 14.545h0.97v2.909h-0.97v0.97h1.939v0.97h0.97v-1.939h-0.97v-3.879h0.97v-0.97h-1.939v0.97h-1.939v0.97h0.97z"></path>
<path d="M28.121 16.485h0.97v0.97h-0.97v-0.97z"></path>
<path d="M28.121 23.273h0.97v-0.97h0.97v-0.97h-2.909v0.97h0.97v0.97z"></path>
<path d="M29.091 9.697h0.97v0.97h-0.97v-0.97z"></path>
<path d="M30.061 8.727v0.97h0.97v1.939h0.97v-2.909h-1.939z"></path>
<path d="M30.061 20.364v0.97h0.97v0.97h0.97v-1.939h-0.97v-0.97h-0.97v0.97z"></path>
<path d="M30.061 23.273v1.939h-0.97v-0.97h-0.97v-0.97h-0.97v-0.97h-0.97v0.97h-1.939v-0.97h-1.939v-0.97h-1.939v0.97h-0.97v-1.939h0.97v-1.939h0.97v-0.97h-1.939v0.97h-0.97v2.909h-0.97v1.939h1.939v0.97h0.97v0.97h0.97v-1.939h1.939v0.97h-0.97v0.97h0.97v2.909h1.939v0.97h0.97v-0.97h0.97v1.939h1.939v-0.97h1.939v-0.97h-1.939v-0.97h-0.97v-0.97h2.909v-0.97h0.97v-0.97h-0.97v-1.939h-0.97v0.97zM27.151 27.151h-2.909v-2.909h2.909v2.909z"></path>
<path d="M30.061 31.030h0.97v0.97h-0.97v-0.97z"></path>
<path d="M31.030 0h-5.818v6.788h6.788v-6.788h-0.97zM31.030 1.939v3.879h-4.849v-4.848h4.849v0.97z"></path>
<path d="M31.030 26.182h0.97v0.97h-0.97v-0.97z"></path>
<path d="M31.030 29.091h0.97v0.97h-0.97v-0.97z"></path>
</symbol>
<symbol id="icon--1" viewBox="0 0 71 32">
<path d="M35.561 20.426c-5.525 5.525-11.234 11.574-20.007 11.574s-15.555-6.704-15.555-16c0-8.537 6.913-16 16.419-16 7.987 0 13.957 6.39 19.142 11.574 5.525-5.525 11.234-11.574 20.007-11.574 9.192 0 15.555 6.704 15.555 16 0 8.537-6.913 16-16.419 16-7.987 0-13.957-6.39-19.142-11.574zM31.241 16c-4.216-3.902-8.642-9.506-14.926-9.506-5.394 0-9.506 4.426-9.506 9.506 0 5.525 3.902 9.506 9.191 9.506 6.154 0 11.129-5.29 15.241-9.506zM64.314 16c0-5.525-3.902-9.506-9.191-9.506-6.154 0-11.129 5.29-15.241 9.506 4.216 3.902 8.642 9.506 14.926 9.506 5.394 0 9.506-4.426 9.506-9.506z"></path>
</symbol>
</defs>
</svg>
